<svg width="24" height="24" viewBox="0 0 24 24" fill="none" xmlns="http://www.w3.org/2000/svg">
<path fill-rule="evenodd" clip-rule="evenodd" d="M20.7071 3.29771C21.0977 3.68823 21.1049 4.31414 20.7233 4.69572L10.3598 15.0593C9.9782 15.4409 9.35229 15.4336 8.96177 15.0431C8.57124 14.6526 8.56399 14.0266 8.94557 13.6451L19.3091 3.2815C19.6907 2.89993 20.3166 2.90718 20.7071 3.29771Z" fill="white"/>
<path fill-rule="evenodd" clip-rule="evenodd" d="M6.82843 17.1683C7.21895 17.5588 7.21895 18.1919 6.82843 18.5825L4.70711 20.7038C4.31658 21.0943 3.68342 21.0943 3.29289 20.7038C2.90237 20.3133 2.90237 19.6801 3.29289 19.2896L5.41421 17.1683C5.80474 16.7777 6.4379 16.7777 6.82843 17.1683Z" fill="white"/>
<path fill-rule="evenodd" clip-rule="evenodd" d="M3.29774 3.29771C2.90721 3.68823 2.89996 4.31414 3.28153 4.69572L13.6451 15.0593C14.0267 15.4409 14.6526 15.4336 15.0431 15.0431C15.4336 14.6526 15.4409 14.0266 15.0593 13.6451L4.69575 3.2815C4.31417 2.89993 3.68826 2.90718 3.29774 3.29771Z" fill="white"/>
<path fill-rule="evenodd" clip-rule="evenodd" d="M17.1765 17.1683C16.7859 17.5588 16.7859 18.1919 17.1765 18.5825L19.2978 20.7038C19.6883 21.0943 20.3215 21.0943 20.712 20.7038C21.1025 20.3133 21.1025 19.6801 20.712 19.2896L18.5907 17.1683C18.2001 16.7777 17.567 16.7777 17.1765 17.1683Z" fill="white"/>
</svg>
