<svg xmlns="http://www.w3.org/2000/svg" xmlns:xlink="http://www.w3.org/1999/xlink" viewBox="0,0,256,256" width="200px" height="200px" fill-rule="nonzero"><g transform="translate(-19.2,-19.2) scale(1.15,1.15)"><g fill="none" fill-rule="nonzero" stroke="none" stroke-width="none" stroke-linecap="none" stroke-linejoin="none" stroke-miterlimit="10" stroke-dasharray="" stroke-dashoffset="0" font-family="none" font-weight="none" font-size="none" text-anchor="none" style="mix-blend-mode: normal"><g transform="scale(2.56,2.56)"><path d="M52,100c-1.012,0 -2.023,-0.239 -2.925,-0.692c-18.758,-9.443 -25.582,-21.396 -26.299,-22.727c-1.46,-2.705 -0.804,-6.104 1.564,-8.075l2.509,-2.091l-4.12,-5.036c-1.659,-2.029 -2.194,-5.281 -2.744,-7.834c-3.497,-2.513 -5.896,-5.292 -7.047,-7.625l-0.264,-0.532c-0.528,-1.058 -1.045,-1.403 -1.299,-1.448c-0.274,0.036 1.918,-1.94 1.625,-1.94c-1.533,0 0.168,-1.019 -1,-2c-1.474,-1.232 -8,-0.575 -8,-2.5c0,-5.828 4.128,-14.5 15.5,-14.5c0.667,0 1.37,0.036 2.105,0.108c0.212,-0.33 0.436,-0.653 0.671,-0.97c1.852,-3.144 9.689,-15.138 21.44,-15.138h16.575c10.813,0 17.84,12.1 19.754,15.011c0.279,0.365 2.108,0.711 2.355,1.096c0.734,-0.071 1.434,-0.107 2.1,-0.107c11.372,0 15.5,8.672 15.5,14.5c0,1.955 -0.867,3.786 -2.378,5.026c-1.165,0.952 -2.627,1.474 -4.123,1.474v0c-0.294,0 -0.588,-0.021 -0.879,-0.061c-0.251,0.047 -0.77,0.395 -1.306,1.467l-0.26,0.522c-1.142,2.32 -2.92,5.935 -6.415,8.447c-0.549,2.556 -1.701,4.974 -3.363,7.004l-4.126,5.037l2.507,2.091c2.364,1.973 3.02,5.37 1.558,8.079c-0.714,1.325 -7.538,13.278 -26.292,22.719c-0.905,0.456 -1.915,0.695 -2.923,0.695z" fill-opacity="0" fill="#000000" stroke="none" stroke-width="1" stroke-linecap="butt" stroke-linejoin="miter" opacity="0.35"></path><path d="M50,98c-1.012,0 -2.023,-0.239 -2.925,-0.692c-18.758,-9.443 -25.582,-21.396 -26.299,-22.727c-1.46,-2.705 -0.804,-6.104 1.564,-8.075l2.509,-2.091l-4.12,-5.036c-1.659,-2.029 -2.812,-4.444 -3.361,-6.997c-3.497,-2.513 -5.278,-6.129 -6.429,-8.462l-0.264,-0.532c-0.528,-1.058 -1.045,-1.403 -1.299,-1.448c-0.276,0.037 -0.57,0.057 -0.863,0.057c-1.533,0 -3.021,-0.541 -4.188,-1.522c-1.473,-1.234 -2.325,-3.05 -2.325,-4.975c0,-5.828 4.128,-14.5 15.5,-14.5c0.667,0 1.37,0.036 2.105,0.108c0.212,-0.33 0.436,-0.653 0.671,-0.97c1.852,-3.144 9.689,-15.138 21.44,-15.138h16.575c10.813,0 19.406,12.071 21.32,14.982c0.279,0.365 0.542,0.74 0.789,1.125c0.734,-0.071 1.434,-0.107 2.1,-0.107c11.372,0 15.5,8.672 15.5,14.5c0,1.955 -0.867,3.786 -2.378,5.026c-1.165,0.952 -2.627,1.474 -4.123,1.474v0c-0.294,0 -0.588,-0.021 -0.879,-0.061c-0.251,0.047 -0.77,0.395 -1.306,1.467l-0.26,0.522c-1.142,2.32 -2.92,5.935 -6.415,8.447c-0.549,2.556 -1.701,4.974 -3.363,7.004l-4.126,5.037l2.507,2.091c2.364,1.973 3.02,5.37 1.558,8.079c-0.714,1.325 -7.538,13.278 -26.292,22.719c-0.905,0.456 -1.915,0.695 -2.923,0.695z" fill-opacity="0" fill="#f2f2f2" stroke="none" stroke-width="1" stroke-linecap="butt" stroke-linejoin="miter"></path><path d="M9,35l2,-5l6,-2l6.622,0.485l3.378,0.515l-1,21l-4,-2l-4,-6l-4,-5z" fill="#739f4d" stroke="none" stroke-width="1" stroke-linecap="butt" stroke-linejoin="miter"></path><path d="M91,35l-2,-5l-6,-2l-6.622,0.485l-3.378,0.515l1,21l4,-2l4,-6l4,-5z" fill="#739f4d" stroke="none" stroke-width="1" stroke-linecap="butt" stroke-linejoin="miter"></path><path d="M25,28v21v5l8,9v8l17,16l13,-12l6,-9l-3,-3l10,-11l-1,-4v-19l-1,-5l-8,-9l-7.709,-3.5l-17.291,-0.5l-7,3l-4,5l-4,5l-1,4" fill="#96c362" stroke="none" stroke-width="1" stroke-linecap="butt" stroke-linejoin="miter"></path><path d="M33,62c0,0 5.419,3.419 7,5c1,1 3,2 5,2c4,0 5,0 5,0v18l-14,-11l-3,-6z" fill="#739f4d" stroke="none" stroke-width="1" stroke-linecap="butt" stroke-linejoin="miter"></path><path d="M67,62c0,0 -5.419,3.419 -7,5c-1,1 -3,2 -5,2c-4,0 -5,0 -5,0l-2,6.169l2,11.831l14,-11l3,-6z" fill="#739f4d" stroke="none" stroke-width="1" stroke-linecap="butt" stroke-linejoin="miter"></path><path d="M66,66c0,0 -0.17,1.924 -1,4c-2,5 -15,14 -15,16c0,-2 -13,-11 -15,-16c-0.83,-2.076 -1,-4 -1,-4l-7.5,5.5l4.5,5.5l8,8l11,6l11,-6l8,-8l4.5,-5.5z" fill="#8b7431" stroke="none" stroke-width="1" stroke-linecap="butt" stroke-linejoin="miter"></path><path d="M10.217,34c0,0 6,-6 17,3v-11l-5.927,1.91l-8.073,0.09l-3.958,3.18z" fill="#96c362" stroke="none" stroke-width="1" stroke-linecap="butt" stroke-linejoin="miter"></path><path d="M89.891,34.09c0,0 -6,-6 -17,3v-11l5.927,1.91l8.073,0.09l2.895,4.229z" fill="#96c362" stroke="none" stroke-width="1" stroke-linecap="butt" stroke-linejoin="miter"></path><path d="M82.5,27.5c-1.914,0 -4.12,0.441 -6.115,0.983c-0.265,-1.719 -0.856,-3.011 -2.069,-4.722c0,0 -7.816,-12.261 -16.025,-12.261h-8.284h-0.008h-8.282c-9.216,0 -16.025,12.261 -16.025,12.261c-0.877,1.61 -1.804,3.004 -2.069,4.724c-1.998,-0.544 -4.206,-0.985 -6.123,-0.985c-9,0 -9,8 -9,8c0,0 5.174,-0.623 8,5c1.261,2.509 2.992,6.555 7,7.756v0.674c0,2.308 0.799,4.546 2.26,6.332l6.643,8.12l0.097,3.118l-6,5c0,0 6.051,11.219 23.494,20h0.006c17.444,-8.781 23.494,-20 23.494,-20l-5.995,-5v-3l6.747,-8.237c1.462,-1.787 2.26,-4.024 2.26,-6.332v-0.677c4.003,-1.203 5.671,-5.279 6.993,-7.754c2.949,-5.522 8,-5 8,-5c0,0 0.001,-8 -8.999,-8z" fill="none" stroke="#030110" stroke-width="3" stroke-linecap="round" stroke-linejoin="round"></path><path d="M32,38c0,0 2,-4 6,-4c5,0 6,4 6,4c0,0 -2,1 -6,1c-5,0 -6,-1 -6,-1z" fill="#ffffff" stroke="none" stroke-width="1" stroke-linecap="butt" stroke-linejoin="miter"></path><path d="M41,36c0,-0.581 -0.173,-1.119 -0.459,-1.578c-0.704,-0.257 -1.539,-0.422 -2.541,-0.422c-1.018,0 -1.905,0.26 -2.663,0.647c-0.209,0.408 -0.337,0.863 -0.337,1.353c0,1.657 1.343,3 3,3c1.657,0 3,-1.343 3,-3z" fill="#030110" stroke="none" stroke-width="1" stroke-linecap="butt" stroke-linejoin="miter"></path><path d="M68.112,38c0,0 -2,-4 -6,-4c-5,0 -6,4 -6,4c0,0 2,1 6,1c5,0 6,-1 6,-1z" fill="#ffffff" stroke="none" stroke-width="1" stroke-linecap="butt" stroke-linejoin="miter"></path><path d="M59.112,36c0,-0.581 0.173,-1.119 0.459,-1.578c0.705,-0.257 1.54,-0.422 2.541,-0.422c1.018,0 1.905,0.26 2.663,0.647c0.208,0.408 0.337,0.864 0.337,1.353c0,1.657 -1.343,3 -3,3c-1.657,0 -3,-1.343 -3,-3z" fill="#030110" stroke="none" stroke-width="1" stroke-linecap="butt" stroke-linejoin="miter"></path><path d="M62.06,26c-4.321,0 -6.412,1.391 -8.092,2.509c-1.301,0.865 -2.241,1.491 -4.101,1.491c-1.86,0 -2.8,-0.626 -4.101,-1.491c-1.68,-1.118 -3.771,-2.509 -8.092,-2.509c-7.964,0 -10.674,8 -10.847,8.836c0.219,0.109 3.214,-5.836 10.847,-5.836c3.388,0 4.843,0.969 6.384,1.994c1.413,0.94 3.015,2.006 5.809,2.006c2.794,0 4.396,-1.065 5.809,-2.006c1.541,-1.025 2.996,-1.994 6.384,-1.994c8.192,0 10.624,5.949 10.843,5.842c0.097,-0.842 -2.88,-8.842 -10.843,-8.842z" fill="#030110" stroke="none" stroke-width="1" stroke-linecap="butt" stroke-linejoin="miter" opacity="0.35"></path><path d="M44,44c0,0 1,-3 3,-3c1.031,0 0.999,0.266 1.822,0.523c0.764,0.239 1.592,0.239 2.357,0c0.822,-0.257 0.79,-0.523 1.821,-0.523c2,0 3,3 3,3c0,0 -1.267,-1.133 -2.551,-1.292c-0.755,-0.094 -1.603,0.677 -1.968,0.799l-0.341,0.113c-0.742,0.247 -1.542,0.259 -2.291,0.033l-0.616,-0.186c-0.449,-0.135 -1.34,-0.851 -2.189,-0.708c-1.054,0.178 -2.044,1.241 -2.044,1.241z" fill="#030110" stroke="none" stroke-width="1" stroke-linecap="butt" stroke-linejoin="miter" opacity="0.35"></path><path d="M59,52c0,0 -2,-1 -7,-1c-2,1 -2,1 -2,1c0,0 0,0 -2,-1c-5,0 -7,1 -7,1c-4,4 -4,10 -4,10c2,-7 6,-9 6,-9l7,1l7,-1c0,0 4,2 6,9c0,0 0,-6 -4,-10z" fill="#030110" stroke="none" stroke-width="1" stroke-linecap="butt" stroke-linejoin="miter" opacity="0.35"></path><g fill="#030110" stroke="none" stroke-width="1" stroke-linecap="butt" stroke-linejoin="miter" opacity="0.35"><path d="M31,39c0,0 1,5.5 6,5.5c0.255,0 0.484,-0.023 0.721,-0.039c-1.819,2.244 -5.014,6.886 -5.721,12.539c0,0 2.876,-7.636 9.445,-13.762c2.268,-1.63 2.498,-4.26 2.498,-4.26c0,0 -2.534,3.022 -6.943,3.022c-4.327,0 -6,-3 -6,-3z"></path><path d="M69,39.016c0,0 -1.673,2.984 -6,2.984c-4.409,0 -7.066,-3.022 -7.066,-3.022c0,0 0.238,2.678 2.567,4.304c6.535,6.118 9.398,13.718 9.398,13.718c-0.706,-5.651 -3.901,-10.293 -5.72,-12.538c0.229,0.015 0.451,0.038 0.697,0.038c5.124,0 6.124,-5.484 6.124,-5.484z"></path></g><path d="M60.303,19.573c-2,0 -3.303,2.427 -6.303,2.427c-0.92,0 -1.84,-0.212 -2.566,-0.44c-0.937,-0.295 -1.932,-0.295 -2.869,0c-0.725,0.228 -1.645,0.44 -2.565,0.44c-3,0 -4.303,-2.427 -6.303,-2.427c-2.697,0 -4.697,1.427 -4.697,1.427c0,0 2,-3 5,-3c3,0 4,2 6,2c0.902,0 1.805,-0.204 2.524,-0.427c0.965,-0.3 1.988,-0.3 2.953,0c0.718,0.223 1.621,0.427 2.523,0.427c2,0 3,-2 6,-2c3,0 5,3 5,3c0,0 -2.697,-1.427 -4.697,-1.427z" fill="#030110" stroke="none" stroke-width="1" stroke-linecap="butt" stroke-linejoin="miter" opacity="0.35"></path><path d="M50,58c-4,0 -7,-2 -7,-2l1,4c2,-1 10,-1 12,0l1,-4c0,0 -3,2 -7,2z" fill="#030110" stroke="none" stroke-width="1" stroke-linecap="butt" stroke-linejoin="miter" opacity="0.35"></path></g></g></g></svg>